<?xml version="1.0" standalone="no"?>
<!DOCTYPE svg PUBLIC "-//W3C//DTD SVG 20010904//EN"
 "http://www.w3.org/TR/2001/REC-SVG-20010904/DTD/svg10.dtd">
<svg version="1.0" xmlns="http://www.w3.org/2000/svg"
 width="512.000000pt" height="512.000000pt" viewBox="0 0 512.000000 512.000000"
 preserveAspectRatio="xMidYMid meet">

<g transform="translate(0.000000,512.000000) scale(0.100000,-0.100000)"
fill="#000000" stroke="none">
<path d="M2580 5113 c-178 -30 -385 -182 -472 -348 -90 -172 -115 -375 -68
-555 39 -149 10 -256 -95 -346 -138 -118 -174 -152 -233 -218 -88 -99 -176
-230 -248 -370 l-62 -120 -12 45 c-60 235 -192 407 -385 504 -97 48 -173 66
-285 67 -417 2 -685 -419 -546 -857 48 -149 94 -211 324 -425 94 -88 112 -172
71 -346 -26 -113 -37 -398 -20 -530 65 -493 295 -969 631 -1303 228 -228 413
-321 610 -308 95 6 155 27 371 127 203 94 267 140 339 242 49 70 100 199 100
254 0 13 5 24 10 24 6 0 50 -20 99 -44 361 -182 823 -210 1210 -74 526 184
925 640 1035 1183 39 192 38 443 -3 638 -92 440 -377 829 -776 1056 -165 94
-382 166 -580 192 -122 16 -383 6 -500 -19 -49 -11 -93 -18 -97 -16 -19 12
-40 111 -35 170 6 79 33 135 100 210 72 80 112 141 147 221 86 204 77 446 -23
638 -46 87 -174 212 -259 253 -105 51 -243 73 -348 55z m223 -220 c105 -39
207 -151 243 -266 24 -81 29 -200 10 -281 -18 -76 -63 -174 -101 -221 l-24
-30 -342 85 c-187 47 -346 88 -351 92 -18 10 -28 118 -18 194 40 316 324 524
583 427z m-248 -852 c189 -50 259 -72 258 -82 -1 -8 -14 -46 -28 -86 -15 -44
-26 -97 -27 -137 -1 -55 -4 -65 -17 -62 -9 2 -137 34 -286 71 -148 37 -271 68
-273 70 -1 1 9 24 23 51 29 58 55 154 55 206 0 30 4 38 18 37 9 0 134 -31 277
-68z m243 -535 c7 -8 8 -7 -83 -50 -362 -169 -675 -517 -806 -896 -18 -52 -33
-96 -35 -98 -1 -2 -39 24 -84 58 -46 33 -124 83 -174 110 -51 27 -104 62 -119
78 l-27 28 20 69 c100 350 301 679 519 851 l53 42 365 -93 c201 -52 368 -96
371 -99z m-1893 24 c164 -79 278 -251 300 -452 l7 -64 -264 -121 c-144 -67
-294 -135 -331 -152 l-68 -30 -41 37 c-51 46 -111 136 -138 210 -70 187 -27
399 105 520 80 74 136 93 260 89 90 -3 107 -6 170 -37z m2655 -130 c592 -73
1056 -494 1191 -1080 29 -122 36 -374 15 -500 -99 -603 -553 -1057 -1156
-1156 -126 -21 -378 -14 -500 15 -157 36 -318 101 -432 174 -56 35 -56 36 -62
94 -26 245 -59 400 -127 584 -96 264 -233 505 -402 707 -51 61 -51 56 -1 213
173 552 711 952 1289 958 55 1 139 -4 185 -9z m-2345 -607 c21 -71 44 -117 89
-176 l35 -46 -57 -26 c-31 -14 -154 -70 -272 -124 l-215 -98 -12 58 c-14 69
-44 141 -78 185 -14 18 -25 36 -25 41 0 5 483 232 517 242 1 1 9 -25 18 -56z
m338 -359 c395 -230 730 -749 833 -1291 21 -108 30 -402 15 -489 -30 -173 -93
-236 -347 -352 -99 -45 -203 -86 -232 -93 -141 -30 -287 38 -481 226 -301 290
-522 724 -586 1153 -27 178 -13 494 25 561 9 16 666 320 693 320 10 1 46 -15
80 -35z"/>
<path d="M3404 2991 c-219 -99 -224 -405 -9 -507 59 -28 150 -32 215 -9 105
37 180 145 180 260 0 115 -75 223 -180 260 -59 21 -156 19 -206 -4z m160 -135
c100 -42 109 -172 17 -233 -40 -27 -80 -29 -128 -6 -96 45 -96 189 0 237 40
19 68 20 111 2z"/>
<path d="M4165 2652 c-76 -26 -121 -66 -156 -138 -93 -188 24 -390 234 -402
60 -4 75 -1 132 27 104 52 155 135 155 255 0 80 -32 148 -95 204 -78 69 -173
88 -270 54z"/>
<path d="M3555 2211 c-89 -25 -156 -79 -191 -156 -28 -60 -32 -165 -9 -221 42
-101 150 -174 255 -174 247 0 373 278 210 464 -61 69 -183 109 -265 87z m130
-161 c113 -70 63 -243 -70 -243 -51 0 -88 21 -115 66 -24 39 -25 78 -3 124 32
69 122 94 188 53z"/>
<path d="M1615 1445 c-33 -32 -32 -53 10 -135 26 -52 42 -71 61 -76 34 -9 71
10 86 41 10 22 7 35 -17 88 -48 104 -92 130 -140 82z"/>
<path d="M1990 1350 c-28 -28 -25 -61 15 -140 38 -75 65 -93 111 -71 43 19 49
56 18 125 -14 34 -36 71 -47 84 -26 28 -70 29 -97 2z"/>
<path d="M1773 875 c-36 -26 -37 -60 -2 -136 18 -39 40 -74 50 -80 48 -25 109
6 109 56 0 35 -54 140 -82 159 -28 20 -48 20 -75 1z"/>
</g>
</svg>
